<?xml version="1.0" encoding="UTF-8"?>
<svg width="34px" height="48px" viewBox="0 0 34 48" version="1.1" xmlns="http://www.w3.org/2000/svg" xmlns:xlink="http://www.w3.org/1999/xlink">
    <title>Shape</title>
    <g id="Page-1" stroke="none" stroke-width="1" fill="none" fill-rule="evenodd">
        <path d="M16.056376,7.38547834e-06 C15.0534563,0.00144560411 14.0417922,0.206020652 13.0763382,0.624814798 C9.98688733,1.96495533 8.0526449,5.22399191 8.27135316,8.71845033 C8.49006065,12.2129079 10.8152166,15.1802415 14.0452704,16.0866143 C14.3153888,16.1619723 14.6033782,16.0806924 14.8007557,15.8733919 C14.9981332,15.6660914 15.0749124,15.3642643 15.0021714,15.0816058 C14.9294304,14.7989473 14.7182203,14.5784001 14.4481018,14.5030421 C11.8589627,13.7765139 10.0045842,11.4108684 9.82927272,8.60978907 C9.65396204,5.80870979 11.199573,3.20910746 13.6760076,2.13488097 C16.152443,1.06065392 18.996345,1.7581788 20.7637049,3.86866066 C22.3729611,5.79034718 22.7513746,8.48404889 21.7951979,10.7862017 C19.1665049,8.58410891 17.1934711,6.93120816 14.994365,5.09109535 C14.8508613,4.96941565 14.6708515,4.90484707 14.4862486,4.90892884 C14.3136895,4.91325768 14.1473554,4.97733209 14.0132266,5.09109535 L10.60747,7.94344251 C10.5968403,8.21614657 10.6001708,8.49214041 10.6273067,8.76958485 C10.749019,10.0121291 11.2515956,11.134256 12.0112765,12.0166267 C12.6899755,11.4197543 13.5522,11.0450708 14.503033,11.0450708 C16.651136,11.0450708 18.4077514,12.8846617 18.4077514,15.1342343 C18.4077514,17.3838086 16.651136,19.2297892 14.503033,19.2297892 C12.3549268,19.2297892 10.5998403,17.3838086 10.5998403,15.1342343 C10.5998403,15.1262254 10.601288,15.1186133 10.6013669,15.1102649 C9.1981721,13.899555 8.17639862,12.241657 7.72661491,10.3563527 L2.29449409,14.9057269 C2.10858343,15.0608019 2,15.2960329 2,15.5449083 L2,44.1850312 C2.00168906,44.6368681 2.35284479,45.0017166 2.78430039,44.9999939 L26.2217655,44.9999939 C26.6508422,44.9981879 26.9982472,44.6343752 26.9999816,44.1850312 L26.9999816,15.5449083 C27.0016018,15.2973747 26.8961098,15.0623752 26.7130976,14.9057269 C26.7130976,14.9057269 24.2322216,12.8275718 23.0525202,11.8392537 C24.4636048,8.88264613 24.0411297,5.29571114 21.9401563,2.78684606 C20.8377313,1.47039104 19.3941991,0.593616934 17.8401256,0.214140731 C17.2573468,0.0718371344 16.6581274,-0.000843504117 16.056376,7.38547834e-06 Z M14.503033,12.6829732 C14.0316344,12.6829732 13.5972273,12.8286182 13.2319778,13.0744714 C13.6665787,13.3498966 14.1388218,13.5723718 14.6479913,13.7152507 L14.5900078,13.7024679 C15.0614852,13.7965333 15.4809229,14.1133398 15.6855874,14.5126301 C15.8902426,14.9119203 15.9052559,15.3448455 15.8061318,15.7318684 C15.7070077,16.1188953 15.4890034,16.490541 15.1210133,16.7289915 C14.7608873,16.962362 14.2576536,17.0080787 13.8118113,16.8552299 C13.3471253,16.7226974 12.90014,16.5486969 12.4720914,16.3422869 C12.8717846,17.0876162 13.6220202,17.5934847 14.503033,17.5934847 C15.8066998,17.5934847 16.8452537,16.4994834 16.8452537,15.1342343 C16.8452537,13.7689894 15.8066998,12.6829732 14.503033,12.6829732 Z M9.42186395,24.5445833 C10.7070253,24.5445833 11.7640847,25.6563679 11.7640847,27.0022358 C11.7640847,28.3481069 10.7070253,29.4534969 9.42186395,29.4534969 C8.13670258,29.4534969 7.07506588,28.3481069 7.07506588,27.0022358 C7.07506588,25.6563679 8.13670258,24.5445833 9.42186395,24.5445833 Z M21.1177083,24.5445833 C21.4402134,24.5346016 21.735409,24.7332459 21.8607498,25.0445942 C21.9860907,25.3559425 21.9157953,25.715953 21.6838082,25.9507825 L9.2036635,39.0268365 C9.00583979,39.2344013 8.71725713,39.3155859 8.44674301,39.2397748 C8.1762289,39.1639638 7.96493551,38.9426898 7.89254377,38.6593976 C7.82015202,38.3761054 7.89767457,38.0738911 8.09587686,37.8667227 L20.5821255,24.7922658 C20.7232509,24.6401293 20.9152743,24.5513273 21.1177083,24.5445833 Z M9.42186395,26.1808878 C8.98113648,26.1808878 8.63756356,26.5406923 8.63756356,27.0022358 C8.63756356,27.4637816 8.98113648,27.8171923 9.42186395,27.8171923 C9.8625883,27.8171923 10.201587,27.4637816 10.201587,27.0022358 C10.201587,26.5406923 9.8625883,26.1808878 9.42186395,26.1808878 Z M19.5780988,35.1789649 C20.8632602,35.1789649 21.9203196,36.2923474 21.9203196,37.6382152 C21.9203196,38.9840831 20.8632602,40.0894763 19.5780988,40.0894763 C18.2929382,40.0894763 17.2374039,38.9840831 17.2374039,37.6382152 C17.2374039,36.2923474 18.2929382,35.1789649 19.5780988,35.1789649 Z M19.5780988,36.8168673 C19.1373737,36.8168673 18.7937984,37.1766694 18.7937984,37.6382152 C18.7937984,38.0997579 19.1373737,38.4531718 19.5780988,38.4531718 C20.018824,38.4531718 20.3562961,38.0997579 20.3562961,37.6382152 C20.3562961,37.1766694 20.018824,36.8168673 19.5780988,36.8168673 Z" id="Shape" fill="#FFFFFF" fill-rule="nonzero" transform="translate(14.500000, 22.500000) rotate(-20.000000) translate(-14.500000, -22.500000) "></path>
    </g>
</svg>