<?xml version="1.0" encoding="utf-8"?>
<!-- Generator: Adobe Illustrator 24.1.2, SVG Export Plug-In . SVG Version: 6.00 Build 0)  -->
<svg version="1.1" id="Layer_1" xmlns="http://www.w3.org/2000/svg" xmlns:xlink="http://www.w3.org/1999/xlink" x="0px" y="0px"
	 viewBox="0 0 70 13" style="enable-background:new 0 0 70 13;" xml:space="preserve">
<style type="text/css">
	.st0{fill-rule:evenodd;clip-rule:evenodd;fill:#FFFFFF;}
	.st1{fill:#FFFFFF;}
</style>
<path class="st0" d="M6.2,0.9c-3.1,0-5.6,2.5-5.6,5.6c0,3.1,2.5,5.6,5.6,5.6c3.1,0,5.6-2.5,5.6-5.6C11.8,3.5,9.3,0.9,6.2,0.9z
	 M6.2,10.4c-2,0-3.7-1.6-3.8-3.6h3.8V2.7c2.1,0,3.8,1.7,3.8,3.8S8.3,10.4,6.2,10.4z"/>
<path class="st1" d="M17.7,3.3l-3.3,7.5h1.8l0.7-1.6h3.5l0.7,1.6h1.8l-3.3-7.5L17.7,3.3z M17.4,7.8L18.5,5l1.2,2.9H17.4z M26.9,7.5
	c-0.3-0.1-0.7-0.2-1.1-0.2c-0.4-0.1-0.7-0.1-0.9-0.2c-0.2-0.1-0.3-0.2-0.3-0.4c0-0.2,0.1-0.3,0.3-0.4s0.4-0.2,0.8-0.2
	c0.6,0,1.1,0.1,1.6,0.4l0.5-1.2c-0.3-0.2-0.6-0.3-1-0.4S26,4.9,25.6,4.9c-0.5,0-1,0.1-1.4,0.2c-0.4,0.2-0.7,0.4-0.9,0.7
	c-0.2,0.3-0.3,0.6-0.3,1c0,0.4,0.1,0.8,0.3,1c0.2,0.2,0.5,0.4,0.8,0.5c0.3,0.1,0.7,0.2,1.2,0.2c0.4,0.1,0.7,0.1,0.9,0.2
	s0.3,0.2,0.3,0.4c0,0.4-0.4,0.5-1,0.5c-0.4,0-0.7-0.1-1.1-0.1C24,9.3,23.6,9.2,23.4,9l-0.5,1.2c0.3,0.2,0.6,0.3,1.1,0.4
	c0.5,0.1,0.9,0.2,1.4,0.2c0.6,0,1-0.1,1.5-0.2c0.4-0.1,0.7-0.4,0.9-0.6C27.9,9.7,28,9.4,28,9c0-0.4-0.1-0.8-0.3-1
	C27.5,7.8,27.2,7.6,26.9,7.5z M35.1,5h-2l-2.4,2.3V2.8H29v7.9h1.7V9.3l0.8-0.8l1.8,2.2h2l-2.6-3.3L35.1,5z M44.5,3.3l-2.8,4.6
	l-2.8-4.6h-1.4v7.5h1.6V6.3l2.2,3.6h0.8l2.2-3.7l0,4.5h1.6l0-7.5L44.5,3.3z M51.7,5.3c-0.5-0.2-1-0.4-1.5-0.4
	c-0.6,0-1.1,0.1-1.6,0.4c-0.5,0.2-0.8,0.6-1.1,1.1s-0.4,1-0.4,1.5c0,0.6,0.1,1.1,0.4,1.5c0.3,0.4,0.7,0.8,1.2,1.1s1.1,0.4,1.7,0.4
	c1,0,1.8-0.3,2.4-0.9l-0.9-1c-0.2,0.2-0.4,0.3-0.6,0.4s-0.5,0.1-0.8,0.1c-0.4,0-0.8-0.1-1.1-0.3s-0.5-0.5-0.5-0.8h4.3
	c0-0.3,0-0.4,0-0.4c0-0.6-0.1-1.1-0.4-1.6C52.5,5.9,52.1,5.5,51.7,5.3z M48.8,7.4C48.8,7,49,6.7,49.2,6.5s0.6-0.3,1-0.3
	c0.4,0,0.7,0.1,0.9,0.3s0.4,0.5,0.5,0.9L48.8,7.4L48.8,7.4z M56.6,8.9L55,5h-1.7l2.4,5.7h1.7L59.8,5h-1.6L56.6,8.9z M61.3,2.3
	c-0.3,0-0.5,0.1-0.8,0.3c-0.2,0.2-0.3,0.4-0.3,0.7s0.1,0.5,0.3,0.7c0.2,0.2,0.4,0.3,0.8,0.3s0.5-0.1,0.8-0.3
	c0.2-0.2,0.3-0.4,0.3-0.7c0-0.3-0.1-0.5-0.3-0.6C61.9,2.4,61.6,2.3,61.3,2.3z M60.5,10.7h1.7V5h-1.7V10.7z M68.9,5.5
	c-0.4-0.4-1-0.6-1.7-0.6c-0.4,0-0.8,0.1-1.1,0.2s-0.6,0.3-0.8,0.6V5h-1.6v5.7h1.7V7.9c0-0.5,0.1-0.9,0.4-1.2s0.6-0.4,1-0.4
	c0.4,0,0.7,0.1,0.9,0.3c0.2,0.2,0.3,0.6,0.3,1v3h1.7V7.4C69.6,6.6,69.4,6,68.9,5.5z"/>
</svg>
